<svg width="136" height="30" viewBox="0 0 136 30" fill="none" xmlns="http://www.w3.org/2000/svg">
<path d="M39.8024 20.0218C39.8024 20.6767 39.6679 21.1799 39.3991 21.5314C39.1372 21.883 38.6995 22.0588 38.086 22.0588C37.5069 22.0588 37.0968 21.883 36.8554 21.5314C36.6211 21.1799 36.5039 20.6767 36.5039 20.0218V9.09237C36.5039 8.43749 36.6211 7.93427 36.8554 7.58271C37.0968 7.23114 37.5069 7.05536 38.086 7.05536C38.6995 7.05536 39.1372 7.23114 39.3991 7.58271C39.6679 7.93427 39.8024 8.43749 39.8024 9.09237V20.0218Z" fill="white"/>
<path d="M40.8037 16.8475C40.8037 16.1167 40.9209 15.4274 41.1553 14.7794C41.3966 14.1245 41.755 13.5524 42.2307 13.063C42.7132 12.5735 43.3129 12.1841 44.0299 11.8946C44.7537 11.605 45.6015 11.4603 46.5735 11.4603C47.5041 11.4603 48.3279 11.5946 49.0448 11.8635C49.7617 12.1324 50.3649 12.5081 50.8542 12.9906C51.3437 13.4662 51.7159 14.0349 51.971 14.6966C52.226 15.3515 52.3536 16.0684 52.3536 16.8475C52.3536 17.5713 52.2329 18.2571 51.9917 18.9051C51.7504 19.5461 51.3885 20.1115 50.9059 20.6009C50.4235 21.0834 49.8203 21.4694 49.0965 21.759C48.3726 22.0416 47.5316 22.1829 46.5735 22.1829C45.6291 22.1829 44.795 22.0485 44.0712 21.7796C43.3542 21.5039 42.7511 21.1282 42.2617 20.6525C41.7791 20.1701 41.4138 19.6048 41.1657 18.9568C40.9243 18.3019 40.8037 17.5988 40.8037 16.8475ZM44.247 16.8475C44.247 17.3024 44.2883 17.7367 44.3711 18.1503C44.4537 18.5569 44.5848 18.9154 44.764 19.2257C44.9501 19.5358 45.1914 19.784 45.4878 19.9701C45.7842 20.1493 46.1461 20.239 46.5735 20.239C46.9664 20.239 47.3076 20.1563 47.5971 19.9908C47.8936 19.8254 48.1348 19.5944 48.321 19.298C48.514 19.0016 48.6588 18.6466 48.7552 18.233C48.8517 17.8125 48.9 17.3507 48.9 16.8475C48.9 16.3924 48.8552 15.9616 48.7656 15.5549C48.6829 15.1414 48.5485 14.7794 48.3623 14.4692C48.1762 14.1521 47.935 13.9039 47.6385 13.7247C47.349 13.5386 46.9939 13.4456 46.5735 13.4456C46.153 13.4456 45.7946 13.5351 45.4981 13.7144C45.2017 13.8936 44.9605 14.1383 44.7743 14.4485C44.5882 14.7588 44.4537 15.1206 44.3711 15.5343C44.2883 15.9478 44.247 16.3856 44.247 16.8475Z" fill="white"/>
<path d="M60.8413 20.0632C60.6551 20.4078 60.4277 20.7008 60.1588 20.9421C59.8969 21.1833 59.6039 21.3833 59.28 21.5418C58.9629 21.6934 58.6217 21.8072 58.2563 21.883C57.8978 21.952 57.529 21.9865 57.1499 21.9865C56.5157 21.9865 55.9367 21.8727 55.4127 21.6452C54.8889 21.4177 54.4374 21.0902 54.0582 20.6629C53.686 20.2286 53.3965 19.6978 53.1896 19.0705C52.9828 18.4432 52.8794 17.7263 52.8794 16.9198C52.8794 16.1615 52.9759 15.4515 53.169 14.7897C53.362 14.128 53.6411 13.5524 54.0065 13.063C54.3788 12.5735 54.8337 12.1875 55.3714 11.9049C55.909 11.6222 56.5226 11.4809 57.2119 11.4809C57.9977 11.4809 58.694 11.6326 59.3006 11.9358C59.9141 12.2392 60.4415 12.7355 60.8827 13.4248V13.156C60.8827 12.6597 61.0171 12.2875 61.2859 12.0392C61.5617 11.7842 61.9408 11.6567 62.4234 11.6567C62.7129 11.6567 62.9575 11.7049 63.1575 11.8015C63.3573 11.8911 63.5159 12.0289 63.6331 12.2151C63.7503 12.3943 63.833 12.6183 63.8813 12.8872C63.9364 13.1491 63.964 13.449 63.964 13.7867V20.7146C63.964 21.5556 63.8572 22.3069 63.6435 22.9687C63.4367 23.6305 63.1127 24.1889 62.6715 24.6438C62.2303 25.0988 61.6651 25.4434 60.9757 25.6779C60.2864 25.9191 59.4661 26.0397 58.5148 26.0397C57.8462 26.0397 57.2533 26.0087 56.7363 25.9466C56.2262 25.8916 55.785 25.8054 55.4127 25.6882C55.0405 25.5572 54.7579 25.4125 54.5649 25.2539C54.3788 25.0953 54.2857 24.8885 54.2857 24.6335C54.2857 24.4887 54.3063 24.3509 54.3477 24.2199C54.3891 24.0889 54.4511 23.9717 54.5338 23.8683C54.6235 23.7718 54.7372 23.6926 54.8751 23.6305C55.0198 23.5754 55.1956 23.5478 55.4024 23.5478C55.623 23.5478 55.8436 23.5615 56.0642 23.5892C56.2916 23.6167 56.5261 23.6443 56.7673 23.6718C57.0154 23.7063 57.274 23.7373 57.5428 23.7649C57.8185 23.7925 58.1149 23.8063 58.432 23.8063C58.8112 23.8063 59.149 23.7684 59.4454 23.6926C59.7418 23.6167 59.9934 23.4823 60.2002 23.2892C60.407 23.0963 60.5656 22.8377 60.6759 22.5137C60.7862 22.1966 60.8413 21.79 60.8413 21.2936V20.0632ZM60.8413 16.8475C60.8413 16.3442 60.8034 15.8858 60.7276 15.4722C60.6587 15.0586 60.538 14.707 60.3656 14.4175C60.1933 14.1211 59.9624 13.8936 59.6729 13.735C59.3833 13.5696 59.0215 13.4869 58.5872 13.4869C58.1597 13.4869 57.8048 13.573 57.5222 13.7454C57.2464 13.9177 57.0258 14.1556 56.8604 14.4588C56.695 14.7622 56.5778 15.1172 56.5088 15.5239C56.4467 15.9306 56.4158 16.3649 56.4158 16.8267C56.4158 17.8814 56.6019 18.6742 56.9741 19.2049C57.3463 19.7357 57.8875 20.0012 58.5975 20.0012C58.9284 19.9943 59.2283 19.9322 59.497 19.815C59.7728 19.6909 60.0107 19.5014 60.2105 19.2463C60.4105 18.9912 60.5656 18.6672 60.6759 18.2743C60.7862 17.8814 60.8413 17.4058 60.8413 16.8475Z" fill="white"/>
<path d="M64.9136 16.8475C64.9136 16.1167 65.0308 15.4274 65.2651 14.7794C65.5064 14.1245 65.8648 13.5524 66.3405 13.063C66.8231 12.5735 67.4227 12.1841 68.1396 11.8946C68.8635 11.605 69.7114 11.4603 70.6834 11.4603C71.6139 11.4603 72.4377 11.5946 73.1546 11.8635C73.8715 12.1324 74.4747 12.5081 74.9641 12.9906C75.4535 13.4662 75.8258 14.0349 76.0808 14.6966C76.3359 15.3515 76.4634 16.0684 76.4634 16.8475C76.4634 17.5713 76.3428 18.2571 76.1015 18.9051C75.8602 19.5461 75.4984 20.1115 75.0158 20.6009C74.5332 21.0834 73.9301 21.4694 73.2063 21.759C72.4825 22.0416 71.6415 22.1829 70.6834 22.1829C69.7389 22.1829 68.9048 22.0485 68.181 21.7796C67.4641 21.5039 66.8609 21.1282 66.3715 20.6525C65.889 20.1701 65.5236 19.6048 65.2754 18.9568C65.0342 18.3019 64.9136 17.5988 64.9136 16.8475ZM68.3568 16.8475C68.3568 17.3024 68.3982 17.7367 68.4809 18.1503C68.5636 18.5569 68.6945 18.9154 68.8738 19.2257C69.0599 19.5358 69.3012 19.784 69.5976 19.9701C69.894 20.1493 70.256 20.239 70.6834 20.239C71.0763 20.239 71.4175 20.1563 71.707 19.9908C72.0034 19.8254 72.2447 19.5944 72.4308 19.298C72.6238 19.0016 72.7685 18.6466 72.8651 18.233C72.9616 17.8125 73.0099 17.3507 73.0099 16.8475C73.0099 16.3924 72.965 15.9616 72.8754 15.5549C72.7927 15.1414 72.6582 14.7794 72.4722 14.4692C72.2861 14.1521 72.0447 13.9039 71.7484 13.7247C71.4589 13.5386 71.1038 13.4456 70.6834 13.4456C70.2628 13.4456 69.9043 13.5351 69.608 13.7144C69.3116 13.8936 69.0703 14.1383 68.8842 14.4485C68.6981 14.7588 68.5636 15.1206 68.4809 15.5343C68.3982 15.9478 68.3568 16.3856 68.3568 16.8475Z" fill="white"/>
<path d="M80.8976 7.97566C80.8976 8.20314 80.8459 8.40649 80.7425 8.58572C80.6391 8.75806 80.5047 8.90278 80.3393 9.02004C80.1739 9.13722 79.9808 9.22678 79.7602 9.28881C79.5466 9.34396 79.326 9.37157 79.0984 9.37157C78.8572 9.37157 78.6263 9.34051 78.4057 9.27849C78.192 9.21646 78.0025 9.1269 77.837 9.00963C77.6716 8.88557 77.5406 8.73737 77.444 8.56504C77.3476 8.39271 77.2993 8.19624 77.2993 7.97566C77.2993 7.77575 77.3441 7.59308 77.4337 7.42763C77.5302 7.2553 77.6577 7.10709 77.8163 6.98301C77.9749 6.85893 78.1645 6.76242 78.3851 6.69349C78.6056 6.62455 78.8469 6.59009 79.1088 6.59009C79.3363 6.59009 79.5569 6.62111 79.7706 6.68315C79.9912 6.74519 80.1842 6.8348 80.3496 6.95199C80.5151 7.06918 80.6461 7.21394 80.7425 7.38627C80.8459 7.55861 80.8976 7.75507 80.8976 7.97566ZM80.7425 20.0218C80.7425 20.6767 80.6081 21.1799 80.3393 21.5315C80.0773 21.8831 79.6396 22.0588 79.0261 22.0588C78.4471 22.0588 78.0369 21.8831 77.7956 21.5315C77.5613 21.1799 77.444 20.6767 77.444 20.0218V13.6937C77.444 13.0388 77.5613 12.5356 77.7956 12.1841C78.0369 11.8325 78.4471 11.6567 79.0261 11.6567C79.6396 11.6567 80.0773 11.8325 80.3393 12.1841C80.6081 12.5356 80.7425 13.0388 80.7425 13.6937V20.0218Z" fill="white"/>
<path d="M85.4973 16.8267C85.4973 17.2886 85.5317 17.7194 85.6007 18.1193C85.6765 18.5191 85.8006 18.8706 85.9729 19.174C86.1522 19.4703 86.3865 19.7047 86.676 19.877C86.9724 20.0494 87.3378 20.1355 87.7721 20.1355C88.1719 20.1355 88.5062 20.0529 88.7753 19.8874C89.0506 19.7151 89.2712 19.4807 89.4371 19.1843C89.6021 18.8809 89.7195 18.526 89.7883 18.1193C89.8642 17.7125 89.9021 17.2713 89.9021 16.7957C89.9021 16.4166 89.8747 16.0306 89.8192 15.6377C89.7644 15.2378 89.6612 14.8759 89.5095 14.5519C89.3577 14.2279 89.1477 13.9625 88.8786 13.7557C88.6094 13.549 88.2583 13.4455 87.8238 13.4455C87.3895 13.4455 87.0207 13.5145 86.7174 13.6524C86.421 13.7902 86.1797 14.0005 85.9936 14.2831C85.8143 14.5657 85.6868 14.9207 85.611 15.3481C85.5352 15.7686 85.4973 16.2615 85.4973 16.8267ZM85.487 13.6937C85.6593 13.3284 85.8799 13.0078 86.1487 12.7321C86.4175 12.4563 86.714 12.2254 87.038 12.0392C87.362 11.8532 87.6997 11.7152 88.0513 11.6257C88.41 11.5292 88.7647 11.4809 89.1159 11.4809C89.7503 11.4809 90.323 11.6222 90.833 11.9049C91.343 12.1875 91.7771 12.5735 92.1353 13.063C92.5006 13.5455 92.7803 14.1176 92.9736 14.7794C93.1659 15.4343 93.263 16.1374 93.263 16.8887C93.263 17.6677 93.1589 18.3812 92.9524 19.0292C92.753 19.6772 92.4662 20.2355 92.0939 20.7042C91.7286 21.1661 91.2874 21.528 90.7703 21.79C90.2603 22.0519 89.6921 22.1829 89.0647 22.1829C88.2927 22.1829 87.6032 22.0037 86.9966 21.6452C86.39 21.2867 85.8868 20.7835 85.487 20.1355V23.858C85.487 24.5128 85.3525 25.0161 85.0837 25.3676C84.8217 25.7192 84.384 25.895 83.7704 25.895C83.1914 25.895 82.7812 25.7192 82.54 25.3676C82.3057 25.0161 82.1885 24.5128 82.1885 23.858V13.6937C82.1885 13.0388 82.3057 12.5356 82.54 12.184C82.7812 11.8325 83.1914 11.6567 83.7704 11.6567C84.384 11.6567 84.8217 11.8325 85.0837 12.184C85.3525 12.5356 85.487 13.0388 85.487 13.6937Z" fill="white"/>
<path d="M96.901 14.4279C96.901 14.6966 97.0184 14.9069 97.2522 15.0586C97.4869 15.2034 97.8107 15.324 98.2246 15.4205C98.6172 15.5101 99.0205 15.5963 99.4343 15.679C99.8481 15.7617 100.251 15.8583 100.644 15.9686C101.037 16.0719 101.405 16.196 101.75 16.3407C102.095 16.4855 102.398 16.6682 102.66 16.8888C102.922 17.1025 103.129 17.3644 103.28 17.6746C103.432 17.9779 103.508 18.3433 103.508 18.7706C103.508 19.3084 103.398 19.7875 103.177 20.2079C102.957 20.6216 102.643 20.9731 102.237 21.2627C101.837 21.5522 101.358 21.7762 100.799 21.9348C100.241 22.0933 99.624 22.176 98.9481 22.1829C98.3075 22.1829 97.6899 22.1416 97.0969 22.0588C96.5049 21.983 95.9772 21.8623 95.5149 21.6969C95.0605 21.5314 94.6952 21.3281 94.419 21.0868C94.1437 20.8387 94.006 20.5492 94.006 20.2183C94.006 19.9287 94.0987 19.7047 94.2849 19.5461C94.471 19.3877 94.7084 19.3084 94.9987 19.3084C95.109 19.3084 95.2396 19.329 95.3913 19.3704C95.5431 19.4118 95.7081 19.4635 95.8872 19.5255C96.0663 19.5875 96.256 19.6564 96.4563 19.7323C96.6628 19.8012 96.8763 19.8633 97.0969 19.9184C97.3731 19.9943 97.6555 20.0563 97.9449 20.1046C98.2413 20.1459 98.5449 20.1666 98.8555 20.1666C99.0478 20.1666 99.2375 20.1493 99.4237 20.1149C99.6099 20.0735 99.7757 20.0149 99.9204 19.9391C100.072 19.8564 100.196 19.753 100.293 19.6289C100.389 19.5049 100.447 19.3532 100.468 19.174C100.489 19.1326 100.506 19.0912 100.52 19.0498C100.534 19.0085 100.541 18.9603 100.541 18.9051C100.541 18.7121 100.451 18.5397 100.272 18.3881C100.1 18.2365 99.8543 18.1158 99.5375 18.0262C99.0063 17.9021 98.4999 17.7884 98.0172 17.685C97.5355 17.5816 97.0872 17.4713 96.6734 17.3541C96.2666 17.2369 95.8943 17.1025 95.5563 16.9508C95.2255 16.7992 94.9431 16.613 94.7084 16.3924C94.4816 16.1719 94.3016 15.9064 94.171 15.5963C94.0466 15.2861 93.9849 14.9104 93.9849 14.4692C93.9849 13.9936 94.0916 13.5696 94.3052 13.1974C94.5257 12.8182 94.8399 12.5012 95.2466 12.2461C95.6534 11.991 96.1457 11.798 96.7255 11.6671C97.3043 11.5292 97.959 11.4603 98.6896 11.4603C99.999 11.4603 100.995 11.6188 101.678 11.9359C102.367 12.2461 102.712 12.6528 102.712 13.1561C102.712 13.4387 102.619 13.6558 102.433 13.8074C102.246 13.9522 102.022 14.0246 101.761 14.0246C101.623 14.0246 101.478 14.0005 101.326 13.9522C101.181 13.8971 101.006 13.8385 100.799 13.7764C100.592 13.7075 100.344 13.6489 100.055 13.6007C99.7722 13.5455 99.4202 13.5179 99.0002 13.5179C98.6825 13.5179 98.3931 13.5317 98.131 13.5593C97.876 13.5868 97.6554 13.6351 97.4693 13.704C97.2902 13.773 97.149 13.866 97.0457 13.9833C96.9487 14.1004 96.901 14.2486 96.901 14.4279Z" fill="white"/>
<path d="M107.704 18.2226C107.704 18.5466 107.746 18.8292 107.829 19.0706C107.918 19.3118 108.039 19.5152 108.191 19.6806C108.342 19.8392 108.518 19.9598 108.717 20.0425C108.925 20.1184 109.145 20.1563 109.379 20.1563C109.655 20.1563 109.921 20.1149 110.176 20.0321C110.431 19.9495 110.655 19.8219 110.848 19.6496C111.048 19.4772 111.207 19.2601 111.324 18.9981C111.44 18.7362 111.499 18.4294 111.499 18.0779V13.6937C111.499 13.0388 111.617 12.5356 111.851 12.1841C112.092 11.8325 112.503 11.6567 113.082 11.6567C113.695 11.6567 114.132 11.8325 114.394 12.1841C114.664 12.5356 114.798 13.0388 114.798 13.6937V20.0218C114.798 20.6767 114.664 21.1799 114.394 21.5314C114.132 21.8831 113.695 22.0588 113.082 22.0588C112.503 22.0588 112.092 21.8831 111.851 21.5314C111.617 21.1799 111.499 20.6767 111.499 20.0218C111.355 20.3389 111.165 20.6284 110.93 20.8904C110.703 21.1524 110.434 21.3799 110.124 21.5728C109.82 21.759 109.483 21.9037 109.111 22.0071C108.746 22.1105 108.349 22.1622 107.922 22.1622C107.46 22.1622 107.015 22.0829 106.587 21.9244C106.167 21.759 105.795 21.5177 105.471 21.2006C105.147 20.8766 104.889 20.4768 104.696 20.0012C104.502 19.5255 104.406 18.9706 104.406 18.3364V13.6937C104.406 13.0388 104.524 12.5356 104.757 12.1841C104.999 11.8325 105.409 11.6567 105.988 11.6567C106.602 11.6567 107.039 11.8325 107.301 12.1841C107.57 12.5356 107.704 13.0388 107.704 13.6937V18.2226Z" fill="white"/>
<path d="M116.295 13.6937C116.295 13.0388 116.412 12.5356 116.647 12.184C116.888 11.8325 117.298 11.6567 117.877 11.6567C118.491 11.6567 118.929 11.8325 119.191 12.184C119.459 12.5356 119.594 13.0388 119.594 13.6937C119.732 13.3628 119.918 13.063 120.153 12.7941C120.393 12.5184 120.666 12.284 120.969 12.091C121.279 11.898 121.614 11.7497 121.972 11.6463C122.33 11.536 122.703 11.4809 123.089 11.4809C123.447 11.4809 123.798 11.5292 124.143 11.6257C124.495 11.7152 124.819 11.8635 125.116 12.0703C125.418 12.2702 125.684 12.5252 125.912 12.8355C126.139 13.1456 126.315 13.5179 126.439 13.9522C126.653 13.4904 126.904 13.1009 127.194 12.7838C127.483 12.4667 127.797 12.2116 128.134 12.0186C128.472 11.8255 128.824 11.6877 129.19 11.605C129.562 11.5223 129.933 11.4809 130.306 11.4809C130.747 11.4809 131.168 11.5602 131.568 11.7187C131.974 11.8772 132.329 12.1186 132.633 12.4426C132.943 12.7596 133.188 13.1629 133.367 13.6524C133.553 14.1348 133.646 14.7002 133.646 15.3481V20.0218C133.646 20.6767 133.511 21.1799 133.242 21.5314C132.981 21.883 132.543 22.0588 131.929 22.0588C131.351 22.0588 130.94 21.883 130.699 21.5314C130.465 21.1799 130.347 20.6767 130.347 20.0218V15.4929C130.347 15.1826 130.306 14.9069 130.224 14.6657C130.141 14.4175 130.023 14.2107 129.872 14.0453C129.727 13.873 129.555 13.7454 129.355 13.6627C129.155 13.573 128.941 13.5282 128.714 13.5282C128.431 13.5282 128.163 13.573 127.908 13.6627C127.653 13.7522 127.428 13.8902 127.235 14.0762C127.049 14.2624 126.897 14.5002 126.78 14.7897C126.67 15.0792 126.615 15.4274 126.615 15.8341V20.0218C126.615 20.6767 126.48 21.1799 126.212 21.5314C125.95 21.883 125.512 22.0588 124.898 22.0588C124.319 22.0588 123.909 21.883 123.668 21.5314C123.433 21.1799 123.316 20.6767 123.316 20.0218V15.6893C123.316 14.9793 123.168 14.4416 122.872 14.0762C122.582 13.711 122.186 13.5282 121.683 13.5282C121.386 13.5282 121.11 13.5765 120.855 13.673C120.6 13.7695 120.379 13.9108 120.193 14.097C120.007 14.2831 119.859 14.514 119.748 14.7897C119.645 15.0655 119.594 15.3826 119.594 15.741V20.0218C119.594 20.6767 119.459 21.1799 119.191 21.5314C118.929 21.883 118.491 22.0588 117.877 22.0588C117.298 22.0588 116.888 21.883 116.647 21.5314C116.412 21.1799 116.295 20.6767 116.295 20.0218V13.6937Z" fill="white"/>
<path d="M15.0002 20.2941C12.0763 20.2941 9.70605 17.9238 9.70605 15C9.70605 12.0761 12.0763 9.70587 15.0002 9.70587C17.924 9.70587 20.2943 12.0761 20.2943 15C20.2943 17.9238 17.924 20.2941 15.0002 20.2941Z" fill="white"/>
<path d="M4.74391 16.8084C3.20972 17.079 2.15812 18.561 2.74704 20.0033C3.56926 22.0168 4.88099 23.8108 6.58156 25.2127C9.01324 27.2171 12.0803 28.2882 15.2312 28.2332C18.3821 28.1783 21.4099 27.0008 23.7702 24.9126C25.4208 23.4523 26.6691 21.6136 27.4206 19.5726C27.9589 18.1106 26.8561 16.6662 25.3134 16.4494C23.7708 16.2326 22.3857 17.3555 21.6237 18.7143C21.2106 19.4508 20.6744 20.119 20.0321 20.6874C18.6778 21.8855 16.9406 22.561 15.1328 22.5926C13.3249 22.6241 11.5652 22.0096 10.17 20.8595C9.50815 20.3139 8.949 19.6649 8.51049 18.9432C7.70156 17.6118 6.27811 16.5379 4.74391 16.8084Z" fill="white"/>
<path d="M28.1329 16.654C28.2005 16.1121 28.2352 15.5601 28.2352 15C28.2352 7.69035 22.3096 1.76471 14.9999 1.76471C7.69029 1.76471 1.76465 7.69035 1.76465 15C1.76465 15.7189 1.82196 16.4243 1.93226 17.1121C2.54018 16.2799 3.489 15.6858 4.51385 15.5051C5.62269 15.3095 6.63045 15.5785 7.48253 16.0812C7.4322 15.728 7.40615 15.3671 7.40615 15C7.40615 10.8061 10.806 7.40621 14.9999 7.40621C19.1939 7.40621 22.5937 10.8061 22.5937 15C22.5937 15.2765 22.5789 15.5496 22.5501 15.8185C23.3842 15.2862 24.3822 14.982 25.4974 15.1388C26.5276 15.2836 27.4963 15.8439 28.1329 16.654Z" fill="white"/>
</svg>
