<svg width="126" height="30" viewBox="0 0 126 30" fill="none" xmlns="http://www.w3.org/2000/svg">
<g clip-path="url(#clip0_2_359)">
<path d="M38.4023 21.456H47.1477V18.8219H41.5106V8.8999H38.4023V21.456Z" fill="white"/>
<path d="M52.3293 19.6999C51.0825 19.6999 50.4327 18.6111 50.4327 16.978C50.4327 15.3448 51.0825 14.2384 52.3293 14.2384C53.5761 14.2384 54.2434 15.3448 54.2434 16.978C54.2434 18.6111 53.5761 19.6999 52.3293 19.6999ZM52.3469 21.737C55.2444 21.737 57.141 19.6823 57.141 16.978C57.141 14.2736 55.2444 12.2189 52.3469 12.2189C49.4669 12.2189 47.5352 14.2736 47.5352 16.978C47.5352 19.6823 49.4669 21.737 52.3469 21.737Z" fill="white"/>
<path d="M62.1562 24.5643C63.4908 24.5643 64.6674 24.2657 65.4576 23.5633C66.1776 22.9136 66.6518 21.9301 66.6518 20.5779V12.4648H63.9123V13.4306H63.8771C63.3503 12.6755 62.5425 12.2014 61.3484 12.2014C59.1181 12.2014 57.5728 14.0628 57.5728 16.697C57.5728 19.454 59.4518 20.9643 61.4713 20.9643C62.5601 20.9643 63.2449 20.5253 63.7718 19.9282H63.842V20.8238C63.842 21.9126 63.3328 22.5448 62.121 22.5448C61.1728 22.5448 60.6986 22.1409 60.5406 21.6667H57.7659C58.0469 23.5457 59.6801 24.5643 62.1562 24.5643ZM62.1386 18.8394C61.0674 18.8394 60.365 17.9614 60.365 16.6092C60.365 15.2394 61.0674 14.3614 62.1386 14.3614C63.3328 14.3614 63.9649 15.3799 63.9649 16.5916C63.9649 17.856 63.3854 18.8394 62.1386 18.8394Z" fill="white"/>
<path d="M72.2849 19.6999C71.038 19.6999 70.3883 18.6111 70.3883 16.978C70.3883 15.3448 71.038 14.2384 72.2849 14.2384C73.5317 14.2384 74.1987 15.3448 74.1987 16.978C74.1987 18.6111 73.5317 19.6999 72.2849 19.6999ZM72.3024 21.737C75.1997 21.737 77.0963 19.6823 77.0963 16.978C77.0963 14.2736 75.1997 12.2189 72.3024 12.2189C69.4224 12.2189 67.4907 14.2736 67.4907 16.978C67.4907 19.6823 69.4224 21.737 72.3024 21.737Z" fill="white"/>
<path d="M77.9326 21.456H80.7951V12.4648H77.9326V21.456ZM77.9326 11.218H80.7951V8.8999H77.9326V11.218Z" fill="white"/>
<path d="M82.0366 24.4238H84.8991V20.5253H84.9342C85.4961 21.2804 86.3215 21.737 87.4805 21.737C89.8337 21.737 91.3966 19.8755 91.3966 16.9604C91.3966 14.256 89.9391 12.2014 87.5508 12.2014C86.3215 12.2014 85.4434 12.7457 84.8288 13.5535H84.7761V12.4648H82.0366V24.4238ZM86.743 19.5243C85.5137 19.5243 84.8113 18.5233 84.8113 17.0657C84.8113 15.6082 85.4435 14.5018 86.6903 14.5018C87.9195 14.5018 88.4991 15.5204 88.4991 17.0657C88.4991 18.5936 87.8317 19.5243 86.743 19.5243Z" fill="white"/>
<path d="M96.0568 21.737C98.4099 21.737 100.148 20.7184 100.148 18.7516C100.148 16.4511 98.287 16.0472 96.7065 15.7838C95.5651 15.5731 94.5465 15.4853 94.5465 14.8531C94.5465 14.2911 95.0909 14.0277 95.7934 14.0277C96.5836 14.0277 97.128 14.2736 97.2333 15.0814H99.8675C99.727 13.3077 98.3572 12.2014 95.8109 12.2014C93.686 12.2014 91.9299 13.1848 91.9299 15.0814C91.9299 17.1887 93.5982 17.6101 95.1612 17.8736C96.3553 18.0843 97.4441 18.1721 97.4441 18.9799C97.4441 19.5594 96.8997 19.8755 96.0392 19.8755C95.0909 19.8755 94.4938 19.4365 94.3885 18.5409H91.6841C91.7719 20.5253 93.4226 21.737 96.0568 21.737Z" fill="white"/>
<path d="M104.037 21.7194C105.284 21.7194 106.074 21.2277 106.724 20.3497H106.776V21.456H109.516V12.4648H106.654V17.4872C106.654 18.5584 106.056 19.296 105.073 19.296C104.16 19.296 103.721 18.7516 103.721 17.7682V12.4648H100.876V18.3653C100.876 20.3672 101.965 21.7194 104.037 21.7194Z" fill="white"/>
<path d="M110.761 21.456H113.624V16.416C113.624 15.3448 114.151 14.5896 115.046 14.5896C115.907 14.5896 116.31 15.1516 116.31 16.1175V21.456H119.173V16.416C119.173 15.3448 119.682 14.5896 120.595 14.5896C121.456 14.5896 121.86 15.1516 121.86 16.1175V21.456H124.722V15.6082C124.722 13.5887 123.704 12.2014 121.667 12.2014C120.508 12.2014 119.542 12.6931 118.839 13.7818H118.804C118.348 12.816 117.452 12.2014 116.275 12.2014C114.976 12.2014 114.115 12.816 113.553 13.7467H113.501V12.4648H110.761V21.456Z" fill="white"/>
<path fill-rule="evenodd" clip-rule="evenodd" d="M15.5907 29.5048C23.673 29.5048 30.2248 22.9528 30.2248 14.8706C30.2248 6.78844 23.673 0.236511 15.5907 0.236511C7.50846 0.236511 0.956543 6.78844 0.956543 14.8706C0.956543 22.9528 7.50846 29.5048 15.5907 29.5048ZM17.8494 11.5433C19.0969 10.2958 19.0969 8.27326 17.8494 7.02577C16.602 5.7783 14.5794 5.7783 13.332 7.02577C12.0845 8.27326 12.0845 10.2958 13.332 11.5433L15.5907 13.802L17.8494 11.5433ZM18.9181 17.1294C20.1656 18.3769 22.1881 18.3769 23.4356 17.1294C24.683 15.8819 24.683 13.8594 23.4356 12.6119C22.1881 11.3645 20.1656 11.3645 18.9181 12.6119L16.6594 14.8707L18.9181 17.1294ZM17.8494 22.7156C19.0969 21.4681 19.0969 19.4456 17.8494 18.1981L15.5907 15.9394L13.332 18.1981C12.0845 19.4456 12.0845 21.4681 13.332 22.7156C14.5794 23.963 16.602 23.963 17.8494 22.7156ZM7.74578 17.1294C6.49834 15.8819 6.49834 13.8594 7.74578 12.6119C8.99329 11.3645 11.0158 11.3645 12.2633 12.6119L14.522 14.8707L12.2633 17.1294C11.0158 18.3769 8.99329 18.3769 7.74578 17.1294Z" fill="white"/>
</g>
<defs>
<clipPath id="clip0_2_359">
<rect width="124.39" height="30" fill="white" transform="translate(0.882324)"/>
</clipPath>
</defs>
</svg>
