<svg width="125" height="30" viewBox="0 0 125 30" fill="none" xmlns="http://www.w3.org/2000/svg">
<g clip-path="url(#clip0_2_370)">
<path d="M38.2188 20.5888H46.9641V17.9546H41.327V8.03265H38.2188V20.5888Z" fill="white"/>
<path d="M52.1457 18.8327C50.8989 18.8327 50.2491 17.7439 50.2491 16.1107C50.2491 14.4775 50.8989 13.3712 52.1457 13.3712C53.3925 13.3712 54.0599 14.4775 54.0599 16.1107C54.0599 17.7439 53.3925 18.8327 52.1457 18.8327ZM52.1633 20.8697C55.0608 20.8697 56.9574 18.8151 56.9574 16.1107C56.9574 13.4063 55.0608 11.3517 52.1633 11.3517C49.2833 11.3517 47.3516 13.4063 47.3516 16.1107C47.3516 18.8151 49.2833 20.8697 52.1633 20.8697Z" fill="white"/>
<path d="M61.9726 23.6971C63.3072 23.6971 64.4838 23.3986 65.274 22.6961C65.994 22.0464 66.4682 21.0629 66.4682 19.7108V11.5976H63.7287V12.5634H63.6935C63.1667 11.8083 62.3589 11.3342 61.1648 11.3342C58.9345 11.3342 57.3892 13.1956 57.3892 15.8298C57.3892 18.5869 59.2682 20.0971 61.2877 20.0971C62.3765 20.0971 63.0614 19.6581 63.5882 19.061H63.6584V19.9566C63.6584 21.0454 63.1492 21.6776 61.9375 21.6776C60.9892 21.6776 60.515 21.2737 60.357 20.7995H57.5823C57.8633 22.6786 59.4965 23.6971 61.9726 23.6971ZM61.955 17.9722C60.8838 17.9722 60.1814 17.0942 60.1814 15.742C60.1814 14.3722 60.8838 13.4942 61.955 13.4942C63.1492 13.4942 63.7814 14.5127 63.7814 15.7244C63.7814 16.9888 63.2018 17.9722 61.955 17.9722Z" fill="white"/>
<path d="M72.1013 18.8327C70.8544 18.8327 70.2047 17.7439 70.2047 16.1107C70.2047 14.4775 70.8544 13.3712 72.1013 13.3712C73.3481 13.3712 74.0154 14.4775 74.0154 16.1107C74.0154 17.7439 73.3481 18.8327 72.1013 18.8327ZM72.1188 20.8697C75.0164 20.8697 76.913 18.8151 76.913 16.1107C76.913 13.4063 75.0164 11.3517 72.1188 11.3517C69.2388 11.3517 67.3071 13.4063 67.3071 16.1107C67.3071 18.8151 69.2388 20.8697 72.1188 20.8697Z" fill="white"/>
<path d="M77.7485 20.5888H80.611V11.5975H77.7485V20.5888ZM77.7485 10.3507H80.611V8.03265H77.7485V10.3507Z" fill="white"/>
<path d="M81.8535 23.5566H84.716V19.6581H84.7511C85.313 20.4132 86.1384 20.8698 87.2974 20.8698C89.6506 20.8698 91.2135 19.0083 91.2135 16.0932C91.2135 13.3888 89.756 11.3342 87.3677 11.3342C86.1384 11.3342 85.2603 11.8786 84.6457 12.6864H84.593V11.5976H81.8535V23.5566ZM86.5599 18.6571C85.3306 18.6571 84.6281 17.6561 84.6281 16.1986C84.6281 14.741 85.2603 13.6347 86.5072 13.6347C87.7364 13.6347 88.316 14.6532 88.316 16.1986C88.316 17.7264 87.6486 18.6571 86.5599 18.6571Z" fill="white"/>
<path d="M95.8737 20.8698C98.2268 20.8698 99.9654 19.8512 99.9654 17.8844C99.9654 15.5839 98.1039 15.18 96.5234 14.9166C95.382 14.7059 94.3634 14.6181 94.3634 13.9859C94.3634 13.4239 94.9078 13.1605 95.6102 13.1605C96.4005 13.1605 96.9449 13.4064 97.0502 14.2142H99.6844C99.5439 12.4405 98.1741 11.3342 95.6278 11.3342C93.5029 11.3342 91.7468 12.3176 91.7468 14.2142C91.7468 16.3215 93.4151 16.7429 94.978 17.0064C96.1722 17.2171 97.261 17.3049 97.261 18.1127C97.261 18.6922 96.7166 19.0083 95.8561 19.0083C94.9078 19.0083 94.3107 18.5693 94.2054 17.6737H91.501C91.5888 19.6581 93.2395 20.8698 95.8737 20.8698Z" fill="white"/>
<path d="M103.854 20.8522C105.101 20.8522 105.891 20.3605 106.541 19.4824H106.593V20.5888H109.333V11.5975H106.47V16.62C106.47 17.6912 105.873 18.4288 104.89 18.4288C103.977 18.4288 103.538 17.8844 103.538 16.9009V11.5975H100.693V17.498C100.693 19.5 101.782 20.8522 103.854 20.8522Z" fill="white"/>
<path d="M110.577 20.5888H113.44V15.5488C113.44 14.4776 113.966 13.7225 114.862 13.7225C115.723 13.7225 116.126 14.2844 116.126 15.2503V20.5888H118.989V15.5488C118.989 14.4776 119.498 13.7225 120.411 13.7225C121.272 13.7225 121.676 14.2844 121.676 15.2503V20.5888H124.538V14.741C124.538 12.7215 123.52 11.3342 121.483 11.3342C120.323 11.3342 119.358 11.8259 118.655 12.9147H118.62C118.163 11.9488 117.268 11.3342 116.091 11.3342C114.792 11.3342 113.931 11.9488 113.369 12.8795H113.317V11.5976H110.577V20.5888Z" fill="white"/>
<path fill-rule="evenodd" clip-rule="evenodd" d="M15.4071 29.3693C23.4893 29.3693 30.0413 22.8174 30.0413 14.7351C30.0413 6.65295 23.4893 0.101013 15.4071 0.101013C7.32487 0.101013 0.772949 6.65295 0.772949 14.7351C0.772949 22.8174 7.32487 29.3693 15.4071 29.3693ZM19.9725 6.91821C20.1947 6.12885 19.4286 5.66208 18.7291 6.1605L8.96304 13.1178C8.20433 13.6583 8.32367 14.7351 9.1423 14.7351H11.714V14.7152H16.726L12.6421 16.1562L10.8418 22.5521C10.6195 23.3415 11.3855 23.8082 12.0852 23.3098L21.8512 16.3526C22.6099 15.8121 22.4905 14.7351 21.6719 14.7351H17.7721L19.9725 6.91821Z" fill="white"/>
</g>
<defs>
<clipPath id="clip0_2_370">
<rect width="124.39" height="30" fill="white" transform="translate(0.272461)"/>
</clipPath>
</defs>
</svg>
