<svg width="123" height="30" viewBox="0 0 123 30" fill="none" xmlns="http://www.w3.org/2000/svg">
<g clip-path="url(#clip0_2_416)">
<path d="M35.9092 21.0685H44.6545V18.4343H39.0175V8.51239H35.9092V21.0685Z" fill="white"/>
<path d="M49.8357 19.3124C48.5888 19.3124 47.9391 18.2236 47.9391 16.5904C47.9391 14.9573 48.5888 13.8509 49.8357 13.8509C51.0825 13.8509 51.7498 14.9573 51.7498 16.5904C51.7498 18.2236 51.0825 19.3124 49.8357 19.3124ZM49.8532 21.3495C52.7508 21.3495 54.6474 19.2948 54.6474 16.5904C54.6474 13.8861 52.7508 11.8314 49.8532 11.8314C46.9732 11.8314 45.0415 13.8861 45.0415 16.5904C45.0415 19.2948 46.9732 21.3495 49.8532 21.3495Z" fill="white"/>
<path d="M59.663 24.1768C60.9976 24.1768 62.1742 23.8782 62.9645 23.1758C63.6845 22.526 64.1586 21.5426 64.1586 20.1904V12.0773H61.4191V13.0431H61.384C60.8571 12.288 60.0493 11.8138 58.8552 11.8138C56.625 11.8138 55.0796 13.6753 55.0796 16.3095C55.0796 19.0665 56.9586 20.5768 58.9781 20.5768C60.0669 20.5768 60.7518 20.1377 61.2786 19.5407H61.3489V20.4363C61.3489 21.5251 60.8396 22.1573 59.6279 22.1573C58.6796 22.1573 58.2054 21.7534 58.0474 21.2792H55.2728C55.5537 23.1582 57.1869 24.1768 59.663 24.1768ZM59.6454 18.4519C58.5742 18.4519 57.8718 17.5738 57.8718 16.2216C57.8718 14.8519 58.5742 13.9738 59.6454 13.9738C60.8396 13.9738 61.4718 14.9924 61.4718 16.2041C61.4718 17.4685 60.8923 18.4519 59.6454 18.4519Z" fill="white"/>
<path d="M69.7917 19.3124C68.5449 19.3124 67.8951 18.2236 67.8951 16.5904C67.8951 14.9573 68.5449 13.8509 69.7917 13.8509C71.0385 13.8509 71.7059 14.9573 71.7059 16.5904C71.7059 18.2236 71.0385 19.3124 69.7917 19.3124ZM69.8093 21.3495C72.7068 21.3495 74.6036 19.2948 74.6036 16.5904C74.6036 13.8861 72.7068 11.8314 69.8093 11.8314C66.9293 11.8314 64.9976 13.8861 64.9976 16.5904C64.9976 19.2948 66.9293 21.3495 69.8093 21.3495Z" fill="white"/>
<path d="M75.439 21.0685H78.3014V12.0773H75.439V21.0685ZM75.439 10.8304H78.3014V8.51239H75.439V10.8304Z" fill="white"/>
<path d="M79.5435 24.0363H82.4059V20.1377H82.441C83.003 20.8929 83.8283 21.3495 84.9874 21.3495C87.3405 21.3495 88.9035 19.488 88.9035 16.5729C88.9035 13.8685 87.4459 11.8138 85.0576 11.8138C83.8283 11.8138 82.9503 12.3582 82.3357 13.166H82.283V12.0773H79.5435V24.0363ZM84.2498 19.1368C83.0205 19.1368 82.3181 18.1358 82.3181 16.6782C82.3181 15.2207 82.9503 14.1143 84.1971 14.1143C85.4264 14.1143 86.0059 15.1329 86.0059 16.6782C86.0059 18.206 85.3386 19.1368 84.2498 19.1368Z" fill="white"/>
<path d="M93.5641 21.3495C95.9173 21.3495 97.6558 20.3309 97.6558 18.3641C97.6558 16.0636 95.7943 15.6597 94.2138 15.3963C93.0724 15.1856 92.0538 15.0977 92.0538 14.4656C92.0538 13.9036 92.5982 13.6402 93.3007 13.6402C94.0909 13.6402 94.6353 13.886 94.7407 14.6938H97.3748C97.2343 12.9202 95.8646 11.8138 93.3182 11.8138C91.1934 11.8138 89.4373 12.7973 89.4373 14.6938C89.4373 16.8012 91.1056 17.2226 92.6685 17.486C93.8626 17.6968 94.9514 17.7846 94.9514 18.5924C94.9514 19.1719 94.407 19.488 93.5465 19.488C92.5982 19.488 92.0012 19.049 91.8958 18.1534H89.1914C89.2792 20.1377 90.9299 21.3495 93.5641 21.3495Z" fill="white"/>
<path d="M101.543 21.3319C102.79 21.3319 103.58 20.8402 104.23 19.9621H104.283V21.0685H107.022V12.0773H104.16V17.0997C104.16 18.1709 103.563 18.9085 102.579 18.9085C101.666 18.9085 101.227 18.3641 101.227 17.3807V12.0773H98.3823V17.9778C98.3823 19.9797 99.4711 21.3319 101.543 21.3319Z" fill="white"/>
<path d="M108.268 21.0685H111.131V16.0285C111.131 14.9573 111.657 14.2021 112.553 14.2021C113.413 14.2021 113.817 14.7641 113.817 15.7299V21.0685H116.68V16.0285C116.68 14.9573 117.189 14.2021 118.102 14.2021C118.963 14.2021 119.367 14.7641 119.367 15.7299V21.0685H122.229V15.2207C122.229 13.2012 121.211 11.8138 119.173 11.8138C118.014 11.8138 117.049 12.3055 116.346 13.3943H116.311C115.854 12.4285 114.959 11.8138 113.782 11.8138C112.483 11.8138 111.622 12.4285 111.06 13.3592H111.008V12.0773H108.268V21.0685Z" fill="white"/>
<path fill-rule="evenodd" clip-rule="evenodd" d="M6.658 2.84743C5.61117 3.5794 4.66456 4.44483 3.84282 5.41904C7.20084 5.10728 11.4671 5.61634 16.4202 8.0929C21.7094 10.7374 25.9685 10.8268 28.9327 10.2551C28.6637 9.44078 28.325 8.65814 27.924 7.91414C24.5308 8.27202 20.1808 7.79831 15.1113 5.26361C11.8921 3.654 9.05436 2.99094 6.658 2.84743ZM25.9419 5.09288C23.2623 2.09899 19.3682 0.214844 15.034 0.214844C13.7612 0.214844 12.5262 0.377361 11.3489 0.682756C12.9435 1.11783 14.6374 1.75435 16.4202 2.64577C20.1318 4.50157 23.3363 5.0991 25.9419 5.09288ZM29.5664 13.1134C25.9854 13.8206 21.0405 13.6753 15.1113 10.7107C9.56817 7.93917 5.15631 7.97407 2.1808 8.63531C2.02722 8.66941 1.87725 8.70526 1.7309 8.74258C1.34133 9.58983 1.03037 10.4808 0.807245 11.4059C1.04555 11.3423 1.2918 11.2818 1.54587 11.2253C5.15569 10.4231 10.256 10.4579 16.4202 13.54C21.9634 16.3116 26.3752 16.2767 29.3508 15.6154C29.4527 15.5928 29.5531 15.5694 29.6519 15.5453C29.6628 15.3146 29.6682 15.0824 29.6682 14.849C29.6682 14.2618 29.6336 13.6826 29.5664 13.1134ZM29.1741 18.6336C25.6279 19.2536 20.8269 19.0156 15.1113 16.1578C9.56817 13.3863 5.15631 13.4212 2.1808 14.0824C1.52033 14.2291 0.926175 14.4079 0.402046 14.5966C0.400617 14.6805 0.399902 14.7647 0.399902 14.849C0.399902 22.9312 6.95182 29.4831 15.034 29.4831C21.8075 29.4831 27.5062 24.8813 29.1741 18.6336Z" fill="white"/>
</g>
<defs>
<clipPath id="clip0_2_416">
<rect width="122.195" height="30" fill="white" transform="translate(0.325684)"/>
</clipPath>
</defs>
</svg>
