<svg width="32" height="32" viewBox="0 0 32 32" fill="none" xmlns="http://www.w3.org/2000/svg">
<path d="M12.0401 28.92L15.1468 26.3067C15.6135 25.9067 16.3868 25.9067 16.8535 26.3067L19.9602 28.92C20.6802 29.28 21.5602 28.92 21.8268 28.1467L22.4135 26.3733C22.5601 25.9467 22.4135 25.32 22.0935 25L19.0668 21.96C18.8402 21.7467 18.6668 21.32 18.6668 21.0133V17.2133C18.6668 16.6533 19.0802 16.3867 19.6002 16.6L26.1468 19.4267C27.1735 19.8667 28.0135 19.32 28.0135 18.2V16.48C28.0135 15.5867 27.3468 14.56 26.5201 14.2133L19.0668 11C18.8535 10.9067 18.6668 10.6267 18.6668 10.3867V6.38666C18.6668 5.13333 17.7468 3.65333 16.6268 3.07999C16.2268 2.87999 15.7602 2.87999 15.3602 3.07999C14.2402 3.65333 13.3202 5.14666 13.3202 6.39999V10.4C13.3202 10.64 13.1335 10.92 12.9201 11.0133L5.48015 14.2267C4.65348 14.56 3.98682 15.5867 3.98682 16.48V18.2C3.98682 19.32 4.82682 19.8667 5.85348 19.4267L12.4002 16.6C12.9068 16.3733 13.3335 16.6533 13.3335 17.2133V21.0133C13.3335 21.32 13.1602 21.7467 12.9468 21.96L9.92015 25C9.60015 25.32 9.45348 25.9333 9.60015 26.3733L10.1868 28.1467C10.4268 28.92 11.3068 29.2933 12.0401 28.92Z" stroke="currentColor" stroke-width="3" stroke-linecap="round" stroke-linejoin="round"/>
</svg>
