<svg width="32" height="32" viewBox="0 0 32 32" fill="none" xmlns="http://www.w3.org/2000/svg">
<path d="M2.6665 29.3333H29.3332" stroke="#080318" stroke-width="3" stroke-miterlimit="10" stroke-linecap="round" stroke-linejoin="round"/>
<path d="M20.0133 29.3199L4.01335 29.3466L4 9.42663C4 8.5333 4.45335 7.70659 5.18669 7.21325L10.52 3.65328C11.4134 3.05328 12.5866 3.05328 13.48 3.65328L18.8133 7.21325C19.56 7.70659 20 8.5333 20 9.42663L20.0133 29.3199Z" stroke="#080318" stroke-width="3" stroke-miterlimit="10" stroke-linecap="round" stroke-linejoin="round"/>
<path d="M26.6401 29.3467V24" stroke="#080318" stroke-width="3" stroke-miterlimit="10" stroke-linecap="round" stroke-linejoin="round"/>
<path d="M26.6667 16C25.2 16 24 17.2 24 18.6667V21.3333C24 22.8 25.2 24 26.6667 24C28.1333 24 29.3333 22.8 29.3333 21.3333V18.6667C29.3333 17.2 28.1333 16 26.6667 16Z" stroke="#080318" stroke-width="3" stroke-miterlimit="10" stroke-linecap="round" stroke-linejoin="round"/>
<path d="M4 18.6667H20" stroke="#080318" stroke-width="3" stroke-miterlimit="10" stroke-linecap="round" stroke-linejoin="round"/>
<path d="M12 29.3333V24.3333" stroke="#080318" stroke-width="3" stroke-miterlimit="10" stroke-linecap="round" stroke-linejoin="round"/>
<path d="M12 14C13.1046 14 14 13.1046 14 12C14 10.8954 13.1046 10 12 10C10.8954 10 10 10.8954 10 12C10 13.1046 10.8954 14 12 14Z" stroke="#080318" stroke-width="3" stroke-miterlimit="10" stroke-linecap="round" stroke-linejoin="round"/>
</svg>
