<svg width="33" height="32" viewBox="0 0 33 32" fill="none" xmlns="http://www.w3.org/2000/svg">
<path d="M22.9329 25.3067H10.3996C9.83961 25.3067 9.21295 24.8667 9.02628 24.3333L3.50628 8.89333C2.71961 6.68 3.63961 6 5.53295 7.36L10.7329 11.08C11.5996 11.68 12.5863 11.3733 12.9596 10.4L15.3063 4.14667C16.0529 2.14667 17.2929 2.14667 18.0396 4.14667L20.3863 10.4C20.7596 11.3733 21.7463 11.68 22.5996 11.08L27.4796 7.6C29.5596 6.10667 30.5596 6.86667 29.7063 9.28L24.3196 24.36C24.1196 24.8667 23.4929 25.3067 22.9329 25.3067Z" stroke="#080318" stroke-width="3" stroke-linecap="round" stroke-linejoin="round"/>
<path d="M9.33301 29.3333H23.9997" stroke="#080318" stroke-width="3" stroke-linecap="round" stroke-linejoin="round"/>
<path d="M13.333 18.6667H19.9997" stroke="#080318" stroke-width="3" stroke-linecap="round" stroke-linejoin="round"/>
</svg>
