<svg width="20" height="20" viewBox="0 0 20 20" fill="none" xmlns="http://www.w3.org/2000/svg">
<path fill-rule="evenodd" clip-rule="evenodd" d="M13.2332 17.4333C13.2582 17.5667 13.1832 17.7083 13.0582 17.7583C12.1165 18.1333 11.0832 18.3333 10.0166 18.3333C8.17491 18.3333 6.47489 17.7417 5.09989 16.725C4.98322 16.6417 4.94992 16.475 5.02492 16.35C5.48325 15.5333 7.27488 12.9083 11.2332 11.4417C11.3832 11.3833 11.5499 11.4583 11.5999 11.6083C12.5915 14.2667 13.0582 16.5167 13.2332 17.4333Z" fill="#B88DFF"/>
<path fill-rule="evenodd" clip-rule="evenodd" d="M18.1832 11.575C17.7999 13.625 16.6499 15.4083 15.0415 16.625C14.8665 16.7583 14.6165 16.6583 14.5749 16.4499C14.3999 15.5499 13.9749 13.6083 13.1582 11.2999C13.0999 11.1249 13.2166 10.9333 13.3999 10.9083C15.4749 10.6583 17.2916 11.0583 17.9749 11.2416C18.1165 11.2916 18.2082 11.4333 18.1832 11.575Z" fill="#B88DFF"/>
<path fill-rule="evenodd" clip-rule="evenodd" d="M17.9915 9.84996C17.1415 9.69996 14.9749 9.38328 12.7582 9.62495C12.6249 9.64161 12.5082 9.56661 12.4499 9.44161C12.4165 9.36661 12.3915 9.29162 12.3582 9.21662C12.2249 8.90829 12.0832 8.59163 11.9415 8.28329C11.8665 8.13329 11.9415 7.94995 12.0915 7.88328C14.4249 6.87495 15.7248 5.57495 16.2332 4.99162C16.3582 4.84995 16.5749 4.8583 16.6915 5.0083C17.6499 6.2833 18.2415 7.84162 18.3332 9.52495C18.3415 9.73328 18.1749 9.8833 17.9915 9.84996Z" fill="#B88DFF"/>
<path fill-rule="evenodd" clip-rule="evenodd" d="M15.3666 3.99171C14.9333 4.51671 13.7166 5.7667 11.4083 6.68336C11.275 6.7417 11.1166 6.68336 11.0416 6.55003C9.97496 4.6167 8.84161 2.9917 8.31661 2.25837C8.19161 2.08337 8.29164 1.83338 8.49997 1.80004C8.98331 1.71671 9.49164 1.67505 10.0083 1.67505C12.025 1.67505 13.8833 2.39171 15.325 3.59171C15.45 3.68337 15.4666 3.86671 15.3666 3.99171Z" fill="#B88DFF"/>
<path fill-rule="evenodd" clip-rule="evenodd" d="M9.18347 7.36663C6.02514 8.1583 3.23344 8.26664 2.21677 8.28331C2.0251 8.28331 1.88346 8.09997 1.93346 7.91664C2.53346 5.5833 4.13345 3.63331 6.24178 2.55831C6.36678 2.49164 6.52512 2.5333 6.60845 2.64996C7.04178 3.24996 8.21678 4.94164 9.36678 6.93331C9.45845 7.09998 9.37514 7.31663 9.18347 7.36663Z" fill="#B88DFF"/>
<path fill-rule="evenodd" clip-rule="evenodd" d="M10.7664 9.6666C10.8414 9.82493 10.7498 10.0166 10.5831 10.0749C6.89147 11.2666 4.68314 14.2249 4.01647 15.2416C3.90814 15.4083 3.6748 15.4166 3.5498 15.2666C2.38314 13.8333 1.6748 12.1916 1.6748 10.1999V10.0499C1.6748 9.88326 1.80813 9.74992 1.97479 9.75825C3.02479 9.79992 6.4498 9.65825 10.0081 8.63325C10.1415 8.59158 10.2914 8.65827 10.3498 8.78327C10.4914 9.07493 10.6331 9.3666 10.7664 9.6666Z" fill="#B88DFF"/>
</svg>
