<svg width="20" height="20" viewBox="0 0 20 20" fill="none" xmlns="http://www.w3.org/2000/svg">
<path d="M14.1665 2.91663H5.83317C3.33317 2.91663 1.6665 4.16663 1.6665 7.08329V12.9166C1.6665 15.8333 3.33317 17.0833 5.83317 17.0833H14.1665C16.6665 17.0833 18.3332 15.8333 18.3332 12.9166V7.08329C18.3332 4.16663 16.6665 2.91663 14.1665 2.91663ZM14.5582 7.99163L11.9498 10.075C11.3998 10.5166 10.6998 10.7333 9.99984 10.7333C9.29984 10.7333 8.5915 10.5166 8.04984 10.075L5.4415 7.99163C5.17484 7.77496 5.13317 7.37496 5.3415 7.10829C5.55817 6.84163 5.94984 6.79163 6.2165 7.00829L8.82484 9.09163C9.45817 9.59996 10.5332 9.59996 11.1665 9.09163L13.7748 7.00829C14.0415 6.79163 14.4415 6.83329 14.6498 7.10829C14.8665 7.37496 14.8248 7.77496 14.5582 7.99163Z" fill="#B88DFF"/>
</svg>
