<svg width="45" height="40" viewBox="0 0 45 40" fill="none" xmlns="http://www.w3.org/2000/svg">
<g clip-path="url(#clip0_2_49)">
<path d="M6.04893 30.2378C7.67016 31.3687 10.2987 31.3687 11.92 30.2378C13.5411 29.107 13.5411 27.2735 11.92 26.1427C10.2987 25.0118 7.67016 25.0118 6.04893 26.1427C4.4277 27.2735 4.4277 29.107 6.04893 30.2378Z" fill="#B88DFF"/>
<path d="M22.8761 14.8812C25.308 16.5774 29.2507 16.5774 31.6826 14.8812C34.1144 13.1849 34.1144 10.4347 31.6826 8.7385C29.2507 7.04225 25.308 7.04225 22.8761 8.7385C20.4443 10.4347 20.4443 13.1849 22.8761 14.8812Z" fill="#B88DFF"/>
<path d="M13.9437 22.5594C15.9702 23.9729 19.2559 23.9729 21.2825 22.5594C23.309 21.1458 23.309 18.8541 21.2825 17.4405C19.2559 16.027 15.9702 16.027 13.9437 17.4405C11.9172 18.8541 11.9172 21.1458 13.9437 22.5594Z" fill="#B88DFF"/>
<path d="M0.911942 21.5357C2.12786 22.3838 4.09926 22.3838 5.31519 21.5357C6.53111 20.6876 6.53111 19.3125 5.31519 18.4643C4.09926 17.6162 2.12786 17.6162 0.911942 18.4643C-0.303981 19.3125 -0.30398 20.6876 0.911942 21.5357Z" fill="#B88DFF"/>
<path d="M13.9437 6.17903C15.9702 7.59257 19.2559 7.59257 21.2825 6.17903C23.309 4.76549 23.309 2.47369 21.2825 1.06016C19.2559 -0.353385 15.9702 -0.353386 13.9437 1.06016C11.9172 2.47369 11.9172 4.76549 13.9437 6.17903Z" fill="#B88DFF"/>
<path d="M6.04893 13.8574C7.67016 14.9883 10.2987 14.9883 11.92 13.8574C13.5411 12.7266 13.5411 10.8931 11.92 9.76231C10.2987 8.63148 7.67016 8.63148 6.04893 9.76231C4.4277 10.8931 4.42771 12.7266 6.04893 13.8574Z" fill="#B88DFF"/>
<path d="M13.9437 38.9399C15.9702 40.3534 19.2559 40.3534 21.2825 38.9399C23.309 37.5263 23.309 35.2345 21.2825 33.821C19.2559 32.4075 15.9702 32.4075 13.9437 33.821C11.9172 35.2345 11.9172 37.5263 13.9437 38.9399Z" fill="#B88DFF"/>
<path d="M33.5802 23.0714C36.0121 24.7676 39.9549 24.7676 42.3867 23.0714C44.8186 21.3752 44.8186 18.6249 42.3867 16.9287C39.9549 15.2324 36.0121 15.2324 33.5802 16.9287C31.1484 18.6249 31.1484 21.3752 33.5802 23.0714Z" fill="#B88DFF"/>
<path d="M22.8761 31.2615C25.308 32.9578 29.2507 32.9578 31.6826 31.2615C34.1144 29.5653 34.1144 26.8152 31.6826 25.1188C29.2507 23.4226 25.308 23.4226 22.8761 25.1188C20.4443 26.8152 20.4443 29.5653 22.8761 31.2615Z" fill="#B88DFF"/>
</g>
<defs>
<clipPath id="clip0_2_49">
<rect width="44.2105" height="40" fill="white"/>
</clipPath>
</defs>
</svg>
